<svg width="245" height="35" viewBox="0 0 245 35" fill="none" xmlns="http://www.w3.org/2000/svg">
<path fill-rule="evenodd" clip-rule="evenodd" d="M51.942 0.79355C44.765 2.97155 41.79 7.50955 44.016 12.8835C45.728 17.0175 47.636 17.8256 58.289 18.9276C68.367 19.9706 70.626 21.2165 69.63 25.1835C68.353 30.2705 54.872 31.3446 48.784 26.8436C46.17 24.9116 41 24.8686 41 26.7796C41 28.5076 46.152 32.0875 50.539 33.4075C63.797 37.3975 75.455 32.8996 75.455 23.7946C75.455 18.0856 72.856 15.9466 64.41 14.7036C49.269 12.4746 49.5 12.5495 49.5 9.87055C49.5 4.87955 59.295 3.16055 66.539 6.87955C70.581 8.95455 75.485 8.79955 74.758 6.61955C73.143 1.77555 59.872 -1.61245 51.942 0.79355ZM0 17.3456V33.8456H16H32V31.3456V28.8456H19H6V23.8456V18.8456H18C29.333 18.8456 30 18.7346 30 16.8456C30 14.9566 29.333 14.8456 18 14.8456H6V10.3456V5.84555H18.5H31V3.34555V0.845552H15.5H0V17.3456ZM84 3.34555C84 5.75555 84.233 5.84555 90.5 5.84555H97V19.8456V33.8456H99.5H102V19.8456V5.84555H108.5C114.767 5.84555 115 5.75555 115 3.34555V0.845552H99.5H84V3.34555ZM127 17.3456V33.8456H143H159V31.3456V28.8456H145.945H132.89L133.195 24.0956L133.5 19.3456L145.25 19.0636C156.108 18.8036 157 18.6356 157 16.8456C157 15.0556 156.108 14.8876 145.25 14.6276L133.5 14.3456L133.193 10.0956L132.885 5.84555H145.443H158V3.34555V0.845552H142.5H127V17.3456ZM170 17.3456V33.8456H183.5H197V31.3456V28.8456H186.5H176V14.8456V0.845552H173H170V17.3456ZM214.183 16.6696C209.682 25.4276 206 32.8745 206 33.2195C206 33.5635 207.282 33.8456 208.848 33.8456C211.208 33.8456 212.008 33.1536 213.515 29.8116L215.335 25.7776L224.917 26.0616L234.5 26.3456L236.5 30.0925C238.153 33.1905 239.04 33.8405 241.612 33.8425L244.725 33.8456L236.441 17.5956C228.832 2.66955 227.921 1.32155 225.261 1.04555C222.463 0.756549 222.094 1.27656 214.183 16.6696ZM227.955 13.0956C229.177 15.9826 230.41 18.9086 230.695 19.5956C231.08 20.5216 229.504 20.8456 224.616 20.8456H218.019L221.224 14.3456C222.987 10.7706 224.723 7.84555 225.081 7.84555C225.44 7.84555 226.733 10.2086 227.955 13.0956Z" fill="white"/>
</svg>
