<svg width="300" height="300" viewBox="0 0 300 300" fill="none" xmlns="http://www.w3.org/2000/svg">
<path fill-rule="evenodd" clip-rule="evenodd" d="M136.473 0.289697C116.677 2.7027 97.4441 8.1607 82.8071 15.5197C54.7291 29.6367 29.4221 54.9437 15.3051 83.0217C10.1161 93.3417 4.0391 111.708 1.8491 123.688C-0.7709 138.016 -0.5809 162.941 2.2551 177.212C13.8961 235.772 57.1991 281.272 114.495 295.146C193.817 314.352 274.486 265.494 294.537 186.101C315.473 103.201 262.205 19.4187 177.916 2.6777C168.312 0.769697 144.018 -0.630303 136.473 0.289697ZM175.973 10.5947C180.923 11.6167 186.885 12.9727 189.223 13.6087L193.473 14.7647V62.0697C193.473 106.922 193.368 109.681 191.452 115.281C187.21 127.681 177.068 138.077 164.699 142.705C138.724 152.423 109.848 135.34 105.508 107.688C104.933 104.024 104.485 82.5517 104.481 58.4727C104.474 18.8017 104.598 15.6927 106.223 14.8457C109.053 13.3697 126.084 9.6447 134.344 8.6947C145.024 7.4667 165.297 8.3927 175.973 10.5947ZM96.4731 82.1877V145.688H51.9881H7.5041L8.0671 139.438C11.2561 104.05 25.1201 73.9507 49.4281 49.6427C60.6931 38.3777 74.4291 28.4847 87.4451 22.2607C91.5541 20.2957 95.2671 18.6877 95.6951 18.6877C96.1231 18.6877 96.4731 47.2627 96.4731 82.1877ZM213.897 23.6487C227.285 30.4647 238.199 38.4607 249.451 49.6957C273.252 73.4597 288.06 105.023 290.152 136.449L290.768 145.709L246.371 145.449L201.973 145.188L201.716 81.9377C201.502 29.4447 201.687 18.6877 202.805 18.6877C203.546 18.6877 208.537 20.9197 213.897 23.6487ZM96.4731 217.188C96.4731 252.113 96.1151 280.688 95.6781 280.688C95.2411 280.688 91.0791 278.775 86.4281 276.438C41.5971 253.904 12.2901 210.496 8.1121 160.438L7.5481 153.688H52.0111H96.4731V217.188ZM159.973 155.049C173.029 158.542 183.736 167.286 189.566 179.216L192.973 186.188L193.258 235.296L193.544 284.405L187.758 285.997C163.244 292.744 133.198 292.698 110.797 285.879L104.973 284.106L104.699 241.647C104.528 215.318 104.827 196.529 105.485 192.188C109.459 165.966 135.199 148.422 159.973 155.049ZM290.362 161.938C288.206 188.724 278.338 214.227 261.632 236.188C254.049 246.156 240.077 259.17 229.02 266.564C219.409 272.991 204.957 280.688 202.501 280.688C201.348 280.688 200.989 155.505 202.14 154.355C202.506 153.988 222.656 153.688 246.916 153.688H291.026L290.362 161.938Z" fill="white"/>
</svg>
